PathFileType        4      (X/Y/Z)      C:\Users\pc\Desktop\IMUTRC\Sujet_06\Sujet_06_velo_100.trc         
DataRate	CameraRate	NumFrames	NumMarkers	Units	OrigDataRate	OrigDataStartFrame	OrigNumFrames
60.0	60.0	4	64	mm	60.0	234	933
Frame#	Time	pHipOrigin			pRightASI			pLeftASI			pRightCSI			pLeftCSI			pRightIschialTub			pLeftIschialTub			pSacrum			pL5SpinalProcess			pL3SpinalProcess			pT12SpinalProcess			pIJ			pT4SpinalProcess			pT8SpinalProcess			pPX			pC7SpinalProcess			pTopOfHead			pRightAuricularis			pLeftAuricularis			pBackOfHead			pRightAcromion			pLeftAcromion			pRightArmLatEpicondyle			pRightArmMedEpicondyle			pLeftArmLatEpicondyle			pLeftArmMedEpicondyle			pRightUlnarStyloid			pRightRadialStyloid			pRightOlecranon			pLeftUlnarStyloid			pLeftRadialStyloid			pLeftOlecranon			pRightTopOfHand			pRightPinky			pRightBallHand			pLeftTopOfHand			pLeftPinky			pLeftBallHand			pRightGreaterTrochanter			pRightKneeLatEpicondyle			pRightKneeMedEpicondyle			pRightPatella			pLeftGreaterTrochanter			pLeftKneeLatEpicondyle			pLeftKneeMedEpicondyle			pLeftPatella			pRightTibialTub			pRightLatMalleolus			pRightMedMalleolus			pLeftTibialTub			pLeftLatMalleolus			pLeftMedMalleolus			pRightHeelFoot			pRightFirstMetatarsal			pRightFifthMetatarsal			pRightPivotFoot			pRightHeelCenter			pRightToe			pLeftHeelFoot			pLeftFirstMetatarsal			pLeftFifthMetatarsal			pLeftPivotFoot			pLeftHeelCenter			pLeftToe			
		X1	Y1	Z1	X2	Y2	Z2	X3	Y3	Z3	X4	Y4	Z4	X5	Y5	Z5	X6	Y6	Z6	X7	Y7	Z7	X8	Y8	Z8	X9	Y9	Z9	X10	Y10	Z10	X11	Y11	Z11	X12	Y12	Z12	X13	Y13	Z13	X14	Y14	Z14	X15	Y15	Z15	X16	Y16	Z16	X17	Y17	Z17	X18	Y18	Z18	X19	Y19	Z19	X20	Y20	Z20	X21	Y21	Z21	X22	Y22	Z22	X23	Y23	Z23	X24	Y24	Z24	X25	Y25	Z25	X26	Y26	Z26	X27	Y27	Z27	X28	Y28	Z28	X29	Y29	Z29	X30	Y30	Z30	X31	Y31	Z31	X32	Y32	Z32	X33	Y33	Z33	X34	Y34	Z34	X35	Y35	Z35	X36	Y36	Z36	X37	Y37	Z37	X38	Y38	Z38	X39	Y39	Z39	X40	Y40	Z40	X41	Y41	Z41	X42	Y42	Z42	X43	Y43	Z43	X44	Y44	Z44	X45	Y45	Z45	X46	Y46	Z46	X47	Y47	Z47	X48	Y48	Z48	X49	Y49	Z49	X50	Y50	Z50	X51	Y51	Z51	X52	Y52	Z52	X53	Y53	Z53	X54	Y54	Z54	X55	Y55	Z55	X56	Y56	Z56	X57	Y57	Z57	X58	Y58	Z58	X59	Y59	Z59	X60	Y60	Z60	X61	Y61	Z61	X62	Y62	Z62	X63	Y63	Z63	X64	Y64	Z64	
234	3.883	0.0	1250.03612	7.654263665882883E-14	42.752640000000014	1329.1604	126.72648000000008	80.91095999999999	1336.81759	-100.56441999999993	10.464830000000012	1390.16268	105.03111000000008	42.49739999999999	1396.54367	-86.65385999999991	-58.44987999999999	1201.6682	37.90309000000008	-42.369780000000006	1204.8587	-57.93939999999992	-56.53558	1271.73148	-8.678149999999915	-22.20585	1361.44822	-0.893339999999914	27.0554	1470.05268	7.146710000000086	74.27473	1568.31994	13.400080000000088	321.47432	1647.82709	55.51462000000006	193.08878	1726.95138	27.821120000000082	131.83127	1659.95097	20.163930000000086	241.58432	1552.87794	45.81551000000007	237.11762	1772.12879	34.96783000000008	515.8393	1806.58614	23.737290000000048	421.91112	1785.52887	106.56255000000006	406.59674	1785.27363	-37.26498999999994	402.76815	1841.04349	35.733550000000065	216.18797000000004	1759.87729	208.91364000000007	273.36165	1733.33237	-139.8713199999999	352.8688000000001	1494.81093	246.68911000000003	339.3411	1478.47559	187.21827000000005	426.76067	1489.32327	-164.50194999999997	403.40624	1467.62791	-110.13589999999996	532.17464	1311.80411	248.09293000000002	556.93289	1340.13571	212.23176000000004	331.42867000000007	1475.54033	236.99000000000007	631.7181	1339.75285	-148.93233	640.01339	1359.53392	-101.45776	408.8939	1471.4565	-163.22574999999998	706.37569	1291.1297	201.25645	634.90859	1278.49534	238.77668	569.56725	1300.8288	230.48139000000003	795.07147	1355.19485	-71.33948000000001	737.38731	1335.03091	-125.45028	667.83451	1334.39282	-126.47124	2.9352600000000177	1219.15212	146.12469000000007	280.25312	960.33913	130.81031000000002	290.33509	966.97536	58.06702000000002	311.51998	995.43458	98.52250000000001	49.64410999999998	1236.89127	-141.6579999999999	348.14686	1010.74896	-78.74142999999998	337.80966	1007.8137	-5.7428899999999805	364.35458	1044.05773	-35.35068999999998	299.90657	914.52361	99.16060000000002	0.12762000000001522	693.35847	124.30170000000004	5.104790000000008	687.87082	65.72421000000004	386.56043	977.05733	-37.77546999999999	284.33695	625.08187	-108.47684999999998	278.2112	619.97708	-49.89935	-86.39861999999998	674.08788	85.25004000000006	5.74289000000001	541.49089	80.65572000000003	-4.5943099999999815	553.10429	155.44094000000004	12.634360000000013	529.62224	121.36645000000003	-64.19276999999998	644.86294	92.90723000000006	54.62128000000001	467.98187	136.80844000000002	237.50048	542.76709	-85.6329	394.98334	528.47367	-53.21746000000002	393.32428	535.62038	-129.15126000000004	415.78537	530.26034	-90.73769000000003	274.89309	542.00137	-86.52624	491.71916	524.77269	-93.03485000000003	
235	3.9	0.0	1250.03612	7.654263665882883E-14	41.85930000000001	1329.28802	126.98172000000008	81.67667999999999	1336.68997	-99.92631999999993	9.699110000000012	1390.2903	104.90349000000009	43.263119999999994	1396.54367	-86.39861999999991	-58.705119999999994	1201.79582	37.520230000000076	-41.859300000000005	1204.8587	-58.19463999999992	-56.40796	1271.73148	-9.188629999999915	-22.20585	1361.44822	-1.148579999999914	26.92778	1470.05268	7.274330000000086	74.27473	1568.31994	13.910560000000087	321.21908	1647.82709	57.684160000000055	192.83354	1726.95138	29.480180000000082	131.70365	1659.95097	21.184890000000085	241.32908	1552.75032	47.346950000000064	236.86238	1772.12879	37.009750000000075	515.58406	1806.969	26.927780000000045	421.40064	1785.40125	109.37018000000006	406.46912	1785.78411	-34.58496999999994	402.25767	1841.17111	38.79642000000006	215.16701000000003	1759.49443	210.7003200000001	273.48927	1733.97047	-137.95701999999991	352.23070000000007	1494.55569	247.96531000000002	338.703	1478.34797	188.62209000000004	427.14353	1490.08899	-164.11908999999997	403.53386	1467.88314	-110.13589999999996	532.30226	1312.18697	248.34817000000004	556.80527	1340.77381	212.48700000000002	330.91819000000004	1475.28509	238.39382000000006	631.97334	1340.39095	-149.05995	640.39625	1360.0444	-101.58538	409.02152	1471.96698	-163.09812999999997	706.37569	1292.15066	201.00121	635.03621	1279.38867	238.77668	569.56725	1301.33928	230.60901000000004	795.3267	1356.08818	-71.59472000000001	737.64255	1335.79663	-125.70552	668.08975	1335.03091	-126.59886	4.083830000000018	1220.68356	146.12469000000007	295.69512	977.82304	131.19317000000004	305.01136	984.45927	58.32226000000002	324.66482	1014.44993	98.52250000000001	48.36790999999999	1233.1903	-141.6579999999999	327.60007	983.69356	-78.74142999999998	317.77335	982.41736	-5.6152699999999784	346.99828	1015.98137	-35.86116999999998	312.79617	931.87991	99.28822000000001	5.615270000000015	721.43483	126.34362000000004	9.954350000000009	715.69194	67.63850000000004	368.43841	951.66098	-37.775469999999984	277.31786	596.62265	-108.85969999999999	270.93687	591.51786	-50.28221	-81.80429999999998	704.07854	87.80243000000006	7.146710000000009	569.31201	83.08050000000003	-2.4247799999999806	581.43589	157.86571000000004	13.910560000000016	557.31574	123.79122000000002	-60.23654999999999	674.34312	95.45962000000006	54.62128000000001	494.78203	139.10560000000004	231.75759	513.54215	-85.88814	389.24044	501.92874	-52.45175000000002	387.96425	508.69259	-128.51316000000003	410.17009	503.97066	-89.84435000000003	269.1502	513.41453	-86.65386	486.23151	499.75921	-91.63103000000002	
236	3.917	0.0	1250.03612	7.654263665882883E-14	40.583100000000016	1329.28802	127.36458000000009	82.69763999999999	1336.56235	-99.16059999999993	8.678150000000013	1390.2903	105.03111000000008	44.156459999999996	1396.41605	-86.01575999999991	-59.087979999999995	1201.79582	36.882130000000075	-41.34882000000001	1204.8587	-58.57749999999992	-56.28034	1271.73148	-9.826729999999914	-22.20585	1361.44822	-1.276199999999914	27.0554	1469.92506	7.657190000000086	74.27473	1568.31994	14.803900000000088	320.83622	1647.57185	60.36417000000006	192.83354	1726.82376	31.394480000000083	131.70365	1659.82335	22.588710000000084	241.20146	1552.6227	49.26125000000006	236.73476	1772.00117	39.30690000000008	515.45644	1806.84138	30.628760000000046	421.01778	1785.01839	112.56068000000006	406.59674	1785.78411	-31.39447999999994	402.13005	1841.04349	42.11454000000006	213.89081000000002	1758.85633	212.86986000000007	273.87213	1734.48094	-135.7874899999999	351.4649800000001	1494.17283	249.24150000000003	338.0649	1478.09273	189.77067000000005	427.52639	1490.34423	-162.84288999999998	403.40624	1467.62791	-109.24255999999995	532.17464	1312.31459	248.73102000000003	556.55003	1341.02905	212.74224000000004	330.40771000000007	1474.90223	239.54240000000004	631.97334	1340.39095	-148.80471	640.39625	1359.91678	-101.33014	409.14914	1472.0946	-161.94954999999996	706.12045	1292.53352	201.12883	634.90859	1279.64391	238.9043	569.43963	1301.59452	230.86425000000003	795.45432	1355.96056	-71.21186000000002	737.77017	1335.66901	-125.32266	668.21737	1334.90329	-126.216	5.104790000000018	1222.08738	145.9970700000001	310.11616	996.58316	131.06555000000003	318.7943	1003.47463	58.06702000000003	336.91632	1034.61386	98.01202000000002	46.964089999999985	1230.38266	-141.91323999999992	305.52184	959.06293	-81.16619999999999	296.33322	958.55245	-8.040049999999978	327.85531	989.69169	-38.541179999999976	325.04768	950.76764	99.03298000000001	13.017220000000016	748.10737	129.53412000000006	16.590580000000006	742.36448	70.82900000000004	347.89162	928.56179	-40.32785999999999	265.44922	571.09868	-109.88066	259.32347	566.12151	-51.303169999999994	-75.04044999999999	730.62346	91.75865000000006	13.78294000000001	595.85693	85.50528000000004	4.97717000000002	607.59795	160.41811000000004	21.057270000000013	583.73305	126.08838000000004	-53.34507999999999	700.88804	99.03298000000004	61.89561000000001	520.81648	140.63704000000004	219.63371	488.1458	-86.52624	376.86132	476.02192	-51.81365000000002	376.0956	482.02005	-127.87506000000002	398.04621	477.55336	-89.07863000000002	257.02631	487.76294	-86.9091	474.23524	472.83143	-90.22721000000003	
237	3.933	0.0	1250.03612	7.654263665882883E-14	39.05166000000001	1329.28802	127.87506000000009	83.97383999999998	1336.56235	-98.13963999999993	7.529570000000012	1390.2903	105.15873000000009	45.30503999999999	1396.41605	-85.37765999999992	-59.59844999999999	1201.79582	36.11641000000008	-40.71072000000001	1204.98632	-59.087979999999924	-56.15272	1271.8591	-10.464829999999914	-22.07823	1361.44822	-1.531439999999914	27.0554	1469.92506	8.040050000000088	74.27473	1568.19232	15.697240000000088	320.7086	1647.31661	63.17181000000006	192.83354	1726.69614	33.30877000000009	131.70365	1659.69573	24.120150000000084	240.94622	1552.49508	51.303170000000065	236.86238	1771.74593	41.604060000000075	515.58406	1806.45852	34.45735000000005	420.76254	1784.50791	116.00641000000006	406.9796	1785.52887	-28.07635999999994	402.25767	1840.66063	45.56027000000007	212.61462000000003	1758.09061	215.1670100000001	274.51023	1734.8638	-133.3627099999999	350.8268800000001	1493.66235	250.26246000000003	337.4268	1477.83749	190.79163000000005	427.78163	1490.47185	-161.18382999999997	403.02338	1467.11743	-108.22160999999996	531.9194	1312.31459	248.85864000000004	556.16717	1341.02905	212.99748000000002	329.76961000000006	1474.39176	240.56336000000005	631.84572	1340.00809	-148.29423	640.39625	1359.27868	-100.69204	409.14914	1471.96698	-160.67334999999997	705.86521	1292.53352	201.12883	634.65335	1279.77153	239.15954	569.18439	1301.59452	231.11949000000004	795.3267	1355.32247	-70.70138000000001	737.64255	1335.15853	-124.81218	668.08975	1334.39282	-125.70552	5.742890000000018	1223.49119	145.86945000000009	323.77148	1016.49185	130.68269000000004	331.68391	1023.63856	57.68416000000002	348.01924	1055.92637	97.37392000000003	45.432659999999984	1228.21313	-142.1684799999999	282.0398	936.72946	-85.50527999999997	273.48927	936.60184	-12.251499999999977	307.1809	965.18868	-42.88025999999998	337.17156	971.05919	98.65012000000002	22.588710000000017	772.99324	133.36271000000005	25.26872000000001	767.12273	74.52997000000005	325.55816	906.99405	-44.53931999999998	249.36912	547.74426	-111.4121	243.62623	542.89471	-52.834599999999995	-65.72420999999999	753.85026	96.48058000000006	25.65158000000001	620.99803	87.93005000000004	17.356300000000022	631.84572	163.09813000000003	33.56401000000002	608.49129	128.38554000000002	-43.39073999999999	724.49771	103.11681000000004	75.80617000000001	546.21282	141.91324000000003	201.89455	465.81234	-87.5472	358.48407	450.62558	-51.303170000000016	358.48407	455.73037	-127.49220000000001	380.05182	451.13606	-88.44053000000001	239.28716	464.66376	-87.5472	456.11323	444.62745	-88.95101000000003	
